<svg width="33" height="33" viewBox="0 0 33 33" fill="none" xmlns="http://www.w3.org/2000/svg">
<g clip-path="url(#clip0_1318_5407)">
<path d="M32.3779 23.3635L30.0488 13.1761C30.0439 13.155 30.0377 13.1346 30.0307 13.1147C29.8534 12.4703 28.9995 11.9834 27.3355 11.5738C27.0189 9.91084 25.555 8.64944 23.8013 8.64944C23.6894 8.64944 23.5773 8.65481 23.4653 8.66534C22.8538 7.485 21.6212 6.7194 20.2684 6.7194C19.8555 6.7194 19.4453 6.79091 19.0588 6.92856C18.4817 6.03165 17.4861 5.47632 16.3919 5.47632C15.2977 5.47632 14.3022 6.03158 13.725 6.92856C13.3385 6.79091 12.9284 6.7194 12.5155 6.7194C11.1626 6.7194 9.92999 7.48507 9.31853 8.66534C9.20652 8.65474 9.09438 8.64944 8.9825 8.64944C7.22878 8.64944 5.76489 9.91084 5.44837 11.5738C3.74541 11.9931 2.8905 12.493 2.74133 13.16C2.73911 13.1681 2.73636 13.176 2.73453 13.1843L0.405847 23.3634C0.396556 23.4041 0.391846 23.4457 0.391846 23.4874C0.391846 24.5533 2.05613 25.5037 5.33832 26.3124C8.50987 27.0937 12.4355 27.524 16.3918 27.524C20.3483 27.524 24.2738 27.0937 27.4454 26.3124C30.7276 25.5037 32.3918 24.5533 32.3918 23.4875C32.3918 23.4458 32.3872 23.4042 32.3779 23.3635ZM27.3663 12.7307C28.4248 13.018 28.7946 13.2705 28.9137 13.3795C28.7768 13.5051 28.3079 13.821 26.8497 14.1586C27.1197 13.728 27.2972 13.242 27.3663 12.7307ZM8.98244 9.76161C9.16556 9.76161 9.35052 9.78241 9.53221 9.82337C9.80555 9.88513 10.082 9.7338 10.1774 9.4704C10.5328 8.49013 11.4723 7.8315 12.5154 7.8315C12.9319 7.8315 13.3439 7.9365 13.7069 8.1352C13.8454 8.21096 14.0095 8.22438 14.1585 8.17197C14.3074 8.11956 14.4271 8.00631 14.4876 7.86048C14.8082 7.08768 15.5556 6.58842 16.3919 6.58842C17.2282 6.58842 17.9756 7.08774 18.2962 7.86048C18.3567 8.00631 18.4764 8.11956 18.6253 8.17197C18.7742 8.22438 18.9385 8.21096 19.0769 8.1352C19.4398 7.9365 19.8519 7.8315 20.2684 7.8315C21.3114 7.8315 22.2509 8.49013 22.6063 9.4704C22.7018 9.73373 22.9783 9.88526 23.2516 9.82337C23.4332 9.78241 23.6182 9.76161 23.8013 9.76161C25.1722 9.76161 26.2502 10.8774 26.2875 12.2478C26.3133 13.1962 25.6366 14.0295 24.9772 14.5063C22.6072 14.862 19.569 15.0573 16.3919 15.0573C13.2937 15.0573 10.3278 14.8714 7.98457 14.5324C7.10918 14.1242 6.49635 13.214 6.49635 12.2478C6.49628 10.8769 7.61158 9.76161 8.98244 9.76161ZM5.41722 12.7307C5.48684 13.2437 5.66597 13.7296 5.93513 14.1589C4.47615 13.8212 4.00692 13.5052 3.87005 13.3795C3.98906 13.2705 4.35884 13.018 5.41722 12.7307ZM26.9325 25.2921C23.887 26.0142 20.1436 26.4119 16.3919 26.4119C12.6402 26.4119 8.8968 26.0142 5.85125 25.2921C2.85125 24.5808 1.66358 23.8048 1.51487 23.5033L3.57001 14.5195C3.78081 14.6377 3.97963 14.7178 4.09655 14.7649C4.79405 15.0457 5.77844 15.2955 7.0223 15.5073C9.52998 15.9343 12.8574 16.1696 16.3919 16.1696C19.9264 16.1696 23.2538 15.9343 25.7615 15.5073C27.0053 15.2955 27.9897 15.0457 28.6872 14.7649C28.8043 14.7177 29.0036 14.6375 29.2149 14.5189L31.269 23.5032C31.1203 23.8047 29.9326 24.5808 26.9325 25.2921Z" fill="black"/>
<path d="M23.1569 16.613C21.8647 16.613 20.7891 17.5585 20.5854 18.7939H12.1982C11.9946 17.5584 10.9189 16.613 9.62671 16.613C8.18971 16.613 7.02063 17.7821 7.02063 19.2191C7.02063 19.7923 7.20794 20.3412 7.54678 20.7893C7.20794 21.2374 7.02063 21.7863 7.02063 22.3595C7.02063 23.7965 8.18971 24.9656 9.62671 24.9656C10.9189 24.9656 11.9945 24.0202 12.1982 22.7848H20.5854C20.789 24.0202 21.8647 24.9656 23.1569 24.9656C24.5939 24.9656 25.763 23.7965 25.763 22.3595C25.763 21.7863 25.5757 21.2374 25.2368 20.7893C25.5757 20.3412 25.763 19.7923 25.763 19.2191C25.763 17.7821 24.5939 16.613 23.1569 16.613ZM24.1167 21.2152C24.4561 21.5002 24.6508 21.9173 24.6508 22.3596C24.6508 23.1833 23.9806 23.8534 23.1569 23.8534C22.3331 23.8534 21.663 23.1833 21.663 22.3596C21.663 22.3275 21.6643 22.2956 21.6663 22.264C21.6761 22.1107 21.622 21.9602 21.5168 21.8482C21.4117 21.7362 21.2649 21.6727 21.1113 21.6727H11.6723C11.5187 21.6727 11.3719 21.7362 11.2668 21.8482C11.1617 21.9602 11.1075 22.1107 11.1173 22.264C11.1193 22.2956 11.1206 22.3275 11.1206 22.3596C11.1206 23.1833 10.4505 23.8534 9.62671 23.8534C8.80301 23.8534 8.13286 23.1833 8.13286 22.3596C8.13286 21.9174 8.3275 21.5003 8.66692 21.2152C8.79274 21.1096 8.86543 20.9537 8.86543 20.7894C8.86543 20.6251 8.7928 20.4692 8.66692 20.3635C8.3275 20.0785 8.13286 19.6615 8.13286 19.2192C8.13286 18.3955 8.80301 17.7253 9.62671 17.7253C10.4505 17.7253 11.1206 18.3955 11.1206 19.2192C11.1206 19.2513 11.1193 19.2832 11.1173 19.3148C11.1075 19.4681 11.1617 19.6186 11.2668 19.7305C11.3719 19.8426 11.5187 19.9061 11.6723 19.9061H21.1113C21.2649 19.9061 21.4117 19.8426 21.5168 19.7305C21.622 19.6185 21.6761 19.4681 21.6663 19.3148C21.6643 19.2832 21.663 19.2513 21.663 19.2192C21.663 18.3955 22.3331 17.7253 23.1569 17.7253C23.9806 17.7253 24.6508 18.3955 24.6508 19.2192C24.6508 19.6614 24.4561 20.0785 24.1167 20.3635C23.9909 20.4692 23.9182 20.6251 23.9182 20.7894C23.9183 20.9537 23.9909 21.1096 24.1167 21.2152Z" fill="black"/>
</g>
<defs>
<clipPath id="clip0_1318_5407">
<rect width="32" height="32" fill="white" transform="translate(0.391846 0.500122)"/>
</clipPath>
</defs>
</svg>
