<svg width="29" height="30" viewBox="0 0 29 30" fill="none" xmlns="http://www.w3.org/2000/svg">
<g clip-path="url(#clip0_1318_5414)">
<path d="M14.9362 15.0809C14.9331 15.0841 14.9207 15.0964 14.9176 15.0996C13.4945 16.5226 9.09722 14.9587 9.58535 13.6158C9.79849 13.0293 10.2407 12.6365 10.6713 12.3799C10.9883 12.191 11.2797 11.9627 11.5388 11.7021C11.7994 11.443 12.0277 11.1516 12.2165 10.8347C12.4731 10.4041 12.866 9.96184 13.4524 9.7487C14.7954 9.26057 16.3593 13.6579 14.9362 15.0809Z" fill="white"/>
<path d="M13.9428 19.2997C13.6429 18.5086 13.8467 17.007 14.6378 16.707C15.4289 16.4071 16.5077 17.4225 16.8076 18.2135C17.1075 19.0046 16.7093 19.8889 15.9183 20.1889C15.1272 20.4889 14.2427 20.0908 13.9428 19.2997Z" fill="white"/>
<path d="M9.79684 18.1471C9.94026 17.437 10.733 16.4376 11.4432 16.5811C12.1533 16.7245 12.512 17.9564 12.3685 18.6665C12.2251 19.3767 11.5331 19.8361 10.8229 19.6926C10.1128 19.5492 9.65343 18.8572 9.79684 18.1471Z" fill="white"/>
<path d="M19.1364 14.1061C18.3453 13.8062 16.8437 14.01 16.5437 14.8011C16.2438 15.5922 17.2592 16.671 18.0502 16.9709C18.8413 17.2708 19.7257 16.8726 20.0256 16.0816C20.3256 15.2905 19.9275 14.4061 19.1364 14.1061Z" fill="white"/>
<path d="M17.9839 9.96019C17.2737 10.1036 16.2743 10.8963 16.4178 11.6065C16.5613 12.3166 17.7932 12.6753 18.5033 12.5318C19.2134 12.3884 19.6728 11.6964 19.5294 10.9862C19.386 10.2762 18.694 9.81678 17.9839 9.96019Z" fill="white"/>
<path d="M26.3946 19.9999H21.387C20.8605 20.7231 20.2231 21.3605 19.4999 21.887V24.6159C19.4999 24.8653 19.2979 25.0672 19.0486 25.0672C18.7992 25.0672 18.5973 24.8652 18.5973 24.6159V22.4651C17.8559 22.8732 17.0615 23.165 16.2367 23.336C16.223 23.3388 16.2092 23.3417 16.1955 23.3445C16.1393 23.3559 16.083 23.3667 16.0266 23.3769C16.0032 23.3811 15.9798 23.3851 15.9564 23.3892C15.9046 23.398 15.8527 23.4071 15.8008 23.415C15.7678 23.4201 15.7344 23.4244 15.7013 23.4292C15.6298 23.4393 15.558 23.4486 15.4861 23.4569C15.4385 23.4624 15.3908 23.4679 15.3429 23.4726C15.3086 23.476 15.2743 23.4788 15.24 23.4818C15.1906 23.486 15.1411 23.49 15.0915 23.4934C15.0591 23.4956 15.0268 23.4977 14.9943 23.4995C14.9395 23.5027 14.8846 23.5052 14.8295 23.5073C14.8022 23.5083 14.7749 23.5096 14.7476 23.5104C14.6654 23.5127 14.5829 23.5142 14.5001 23.5142C14.4173 23.5142 14.3349 23.5127 14.2526 23.5104C14.2253 23.5096 14.198 23.5083 14.1707 23.5073C14.1156 23.5052 14.0607 23.5027 14.0059 23.4995C13.9735 23.4977 13.9411 23.4956 13.9087 23.4934C13.8592 23.4899 13.8097 23.486 13.7603 23.4818C13.7259 23.4788 13.6916 23.476 13.6574 23.4726C13.6094 23.4679 13.5617 23.4624 13.5141 23.4569C13.4422 23.4486 13.3706 23.4393 13.2991 23.4292C13.2658 23.4245 13.2325 23.4202 13.1993 23.415C13.1473 23.4071 13.0955 23.3981 13.0437 23.3892C13.0203 23.3851 12.9969 23.3812 12.9735 23.3769C12.9171 23.3667 12.8608 23.3558 12.8046 23.3445C12.7909 23.3417 12.7772 23.3388 12.7635 23.336C11.9386 23.1651 11.1443 22.8732 10.4028 22.4651V26.8946C10.4028 27.8335 11.1666 28.5973 12.1055 28.5973H16.8945C17.8334 28.5973 18.5972 27.8335 18.5972 26.8946V26.093C18.5972 25.8436 18.7992 25.6416 19.0485 25.6416C19.2979 25.6416 19.4998 25.8437 19.4998 26.093V26.8946C19.4999 28.3312 18.3311 29.5 16.8945 29.5H12.1055C10.6689 29.5 9.5001 28.3312 9.5001 26.8946V21.887C8.77686 21.3605 8.13948 20.7231 7.61301 19.9999H2.60536C1.16878 19.9999 0 18.8311 0 17.3945V15.9127C0 15.6634 0.202037 15.4614 0.451312 15.4614C0.700588 15.4614 0.902625 15.6634 0.902625 15.9127V17.3945C0.902625 18.3334 1.66642 19.0972 2.6053 19.0972H7.03488C6.62673 18.3558 6.33491 17.5615 6.16397 16.7366C6.16114 16.7229 6.15825 16.7092 6.15548 16.6954C6.14409 16.6392 6.13322 16.5829 6.12302 16.5265C6.11883 16.5032 6.11492 16.4797 6.11079 16.4563C6.10189 16.4045 6.09289 16.3527 6.0849 16.3008C6.07986 16.2677 6.0755 16.2344 6.07074 16.2012C6.06066 16.1297 6.05131 16.0579 6.04305 15.9861C6.03749 15.9384 6.03206 15.8907 6.0273 15.8428C6.0239 15.8085 6.02112 15.7742 6.01818 15.7399C6.01393 15.6906 6.00997 15.6411 6.00657 15.5914C6.00436 15.559 6.00226 15.5267 6.00039 15.4942C5.99728 15.4395 5.99479 15.3845 5.99269 15.3295C5.99167 15.3022 5.99037 15.2749 5.98958 15.2476C5.98725 15.1653 5.98572 15.0829 5.98572 15.0001C5.98572 14.9172 5.98725 14.8348 5.98958 14.7525C5.99037 14.7252 5.99167 14.6979 5.99269 14.6706C5.99479 14.6156 5.99728 14.5606 6.00039 14.5059C6.00226 14.4734 6.00436 14.4411 6.00657 14.4087C6.01002 14.3591 6.01393 14.3096 6.01818 14.2602C6.02112 14.2259 6.02396 14.1916 6.0273 14.1573C6.03206 14.1094 6.03755 14.0617 6.04305 14.014C6.05137 13.9421 6.0606 13.8705 6.07074 13.799C6.07544 13.7657 6.07975 13.7324 6.0849 13.6992C6.09289 13.6473 6.10184 13.5954 6.11079 13.5437C6.11481 13.5203 6.11872 13.4968 6.12302 13.4735C6.13327 13.417 6.14415 13.3607 6.15548 13.3046C6.15825 13.2909 6.16114 13.2772 6.16397 13.2634C6.33486 12.4385 6.62673 11.6442 7.03488 10.9028H2.60536C1.66648 10.9027 0.902682 11.6665 0.902682 12.6054V14.4291C0.902682 14.6785 0.700645 14.8804 0.451369 14.8804C0.202094 14.8804 0 14.6785 0 14.4292V12.6055C0 11.1689 1.16878 10.0001 2.60536 10.0001H7.61301C8.13948 9.27686 8.77692 8.63948 9.5001 8.11301V3.10535C9.5001 1.66878 10.6689 0.5 12.1055 0.5H16.8945C18.3311 0.5 19.4999 1.66878 19.4999 3.10535V8.11301C20.2231 8.63948 20.8605 9.27692 21.387 10.0001H26.3946C27.8312 10.0001 29 11.1689 29 12.6055V17.3945C29 18.8311 27.8312 19.9999 26.3946 19.9999ZM18.5972 7.53493V3.10535C18.5972 2.16648 17.8334 1.40268 16.8945 1.40268H12.1055C11.1666 1.40268 10.4028 2.16648 10.4028 3.10535V7.53493C11.1442 7.12678 11.9385 6.83497 12.7634 6.66403C12.7771 6.6612 12.7908 6.65831 12.8046 6.65553C12.8608 6.64415 12.9171 6.63327 12.9735 6.62308C12.9968 6.61889 13.0203 6.61486 13.0437 6.61084C13.0955 6.60195 13.1473 6.59295 13.1992 6.58496C13.2323 6.57986 13.2657 6.5755 13.299 6.5708C13.3705 6.56072 13.4422 6.55143 13.514 6.5431C13.5616 6.53755 13.6094 6.53211 13.6573 6.52736C13.6916 6.52396 13.7259 6.52118 13.7602 6.51824C13.8096 6.51399 13.8591 6.51002 13.9087 6.50663C13.9411 6.50442 13.9734 6.50232 14.0059 6.50045C14.0606 6.49734 14.1156 6.49484 14.1706 6.49275C14.1979 6.49173 14.2252 6.49043 14.2525 6.48963C14.3348 6.48731 14.4172 6.48578 14.5001 6.48578C14.5829 6.48578 14.6653 6.48731 14.7476 6.48963C14.7749 6.49043 14.8022 6.49173 14.8295 6.49275C14.8845 6.49484 14.9395 6.49734 14.9942 6.50045C15.0267 6.50232 15.059 6.50442 15.0914 6.50663C15.141 6.51008 15.1905 6.51399 15.2399 6.51824C15.2742 6.52118 15.3085 6.52401 15.3428 6.52736C15.3907 6.53211 15.4384 6.53761 15.4861 6.5431C15.558 6.55143 15.6296 6.56072 15.7012 6.5708C15.7344 6.5755 15.7677 6.57981 15.8008 6.58496C15.8528 6.59295 15.9046 6.60189 15.9564 6.61084C15.9798 6.61486 16.0032 6.61877 16.0266 6.62308C16.083 6.63333 16.1393 6.64421 16.1955 6.65553C16.2092 6.65831 16.2229 6.6612 16.2367 6.66403C17.0615 6.83491 17.8558 7.12678 18.5972 7.53493ZM16.5816 7.67773C16.5815 7.67773 16.5814 7.67767 16.5813 7.67767C16.4193 7.63156 16.255 7.59118 16.0889 7.55572C16.0589 7.54932 16.0288 7.54292 15.9987 7.53686C15.9553 7.52819 15.9119 7.51976 15.8683 7.51183C15.8133 7.50186 15.7581 7.49251 15.7027 7.48373C15.6609 7.47705 15.6189 7.47087 15.5768 7.46487C15.5212 7.457 15.4656 7.44958 15.4098 7.44289C15.3801 7.43933 15.3504 7.43587 15.3206 7.43264C15.2414 7.42415 15.162 7.41639 15.0824 7.41038C15.0704 7.40948 15.0583 7.40897 15.0464 7.40812C14.9725 7.40291 14.8986 7.39877 14.8244 7.39571C14.8014 7.39475 14.7785 7.39384 14.7554 7.39305C14.6705 7.39022 14.5854 7.38829 14.5 7.38829C14.4146 7.38829 14.3295 7.39022 14.2446 7.39305C14.2216 7.39384 14.1986 7.39475 14.1756 7.39571C14.1014 7.39883 14.0274 7.40285 13.9536 7.40812C13.9417 7.40897 13.9296 7.40948 13.9176 7.41038C13.8379 7.41639 13.7586 7.42415 13.6794 7.43264C13.6496 7.43581 13.6199 7.43933 13.5902 7.44289C13.5344 7.44952 13.4787 7.457 13.4232 7.46487C13.3811 7.47082 13.3392 7.47705 13.2973 7.48373C13.242 7.49251 13.1867 7.50186 13.1317 7.51183C13.0881 7.51976 13.0447 7.52819 13.0013 7.53686C12.9712 7.54287 12.9412 7.54932 12.9111 7.55572C12.745 7.59118 12.5807 7.63156 12.4187 7.67767C12.4186 7.67767 12.4185 7.67773 12.4184 7.67773C9.89178 8.39695 7.89701 10.3918 7.17767 12.9185C7.17767 12.9186 7.17761 12.9186 7.17761 12.9187C7.13151 13.0807 7.09112 13.245 7.05567 13.4112C7.04927 13.4412 7.04287 13.4712 7.0368 13.5014C7.02814 13.5447 7.0197 13.5882 7.01177 13.6317C7.0018 13.6868 6.99246 13.742 6.98368 13.7973C6.97699 13.8392 6.97082 13.8812 6.96481 13.9233C6.95694 13.9788 6.94952 14.0344 6.94284 14.0902C6.93927 14.1199 6.93581 14.1497 6.93259 14.1794C6.92409 14.2586 6.91633 14.338 6.91033 14.4177C6.90942 14.4296 6.90891 14.4418 6.90806 14.4537C6.90285 14.5276 6.89872 14.6015 6.89566 14.6756C6.89469 14.6986 6.89379 14.7216 6.89299 14.7446C6.89016 14.8296 6.88824 14.9146 6.88824 15.0001C6.88824 15.0855 6.89016 15.1705 6.89299 15.2555C6.89379 15.2785 6.89469 15.3015 6.89566 15.3245C6.89877 15.3986 6.90279 15.4727 6.90806 15.5464C6.90891 15.5584 6.90942 15.5705 6.91033 15.5824C6.91633 15.6621 6.92409 15.7415 6.93259 15.8207C6.93576 15.8505 6.93927 15.8802 6.94284 15.9099C6.94947 15.9657 6.95694 16.0213 6.96481 16.0769C6.97076 16.1189 6.97699 16.1609 6.98368 16.2028C6.99246 16.258 7.0018 16.3133 7.01177 16.3684C7.0197 16.4119 7.02814 16.4554 7.0368 16.4987C7.04281 16.5288 7.04927 16.5588 7.05567 16.5889C7.09112 16.7551 7.13151 16.9194 7.17761 17.0814C7.17761 17.0815 7.17767 17.0815 7.17767 17.0817C7.89689 19.6083 9.89178 21.6031 12.4184 22.3224C12.4185 22.3224 12.4186 22.3224 12.4187 22.3224C12.5807 22.3685 12.745 22.4089 12.9111 22.4444C12.9411 22.4508 12.9712 22.4572 13.0013 22.4633C13.0447 22.4719 13.0881 22.4804 13.1317 22.4883C13.1867 22.4983 13.2419 22.5076 13.2973 22.5164C13.3391 22.5231 13.3811 22.5292 13.4232 22.5352C13.4788 22.5431 13.5344 22.5505 13.5902 22.5572C13.6199 22.5608 13.6496 22.5642 13.6794 22.5675C13.7586 22.576 13.838 22.5837 13.9176 22.5897C13.9296 22.5906 13.9417 22.5911 13.9536 22.592C14.0275 22.5972 14.1014 22.6013 14.1756 22.6044C14.1986 22.6054 14.2215 22.6063 14.2446 22.6071C14.3295 22.6099 14.4146 22.6118 14.5 22.6118C14.5854 22.6118 14.6705 22.6099 14.7554 22.6071C14.7784 22.6063 14.8014 22.6054 14.8244 22.6044C14.8986 22.6013 14.9726 22.5973 15.0464 22.592C15.0583 22.5911 15.0704 22.5906 15.0824 22.5897C15.1621 22.5837 15.2414 22.576 15.3206 22.5675C15.3504 22.5643 15.3801 22.5608 15.4098 22.5572C15.4656 22.5506 15.5213 22.5431 15.5768 22.5352C15.6189 22.5293 15.6609 22.5231 15.7027 22.5164C15.758 22.5076 15.8133 22.4983 15.8683 22.4883C15.9119 22.4804 15.9553 22.4719 15.9987 22.4633C16.0288 22.4572 16.0588 22.4508 16.0889 22.4444C16.255 22.4089 16.4193 22.3685 16.5813 22.3224C16.5814 22.3224 16.5815 22.3224 16.5816 22.3224C19.1082 21.6032 21.103 19.6083 21.8223 17.0817C21.8223 17.0815 21.8224 17.0815 21.8224 17.0814C21.8685 16.9194 21.9089 16.7551 21.9443 16.5889C21.9507 16.5589 21.9571 16.5289 21.9632 16.4987C21.9719 16.4554 21.9803 16.4119 21.9882 16.3684C21.9982 16.3133 22.0075 16.2582 22.0163 16.2028C22.023 16.161 22.0292 16.1189 22.0352 16.0769C22.0431 16.0213 22.0505 15.9657 22.0572 15.9099C22.0607 15.8802 22.0642 15.8505 22.0674 15.8207C22.0759 15.7415 22.0837 15.6621 22.0897 15.5824C22.0906 15.5705 22.0911 15.5584 22.0919 15.5464C22.0971 15.4726 22.1013 15.3986 22.1043 15.3245C22.1053 15.3015 22.1062 15.2786 22.107 15.2555C22.1098 15.1705 22.1118 15.0854 22.1118 15.0001C22.1118 14.9146 22.1098 14.8296 22.107 14.7446C22.1062 14.7216 22.1053 14.6986 22.1043 14.6756C22.1012 14.6015 22.0972 14.5274 22.0919 14.4537C22.0911 14.4418 22.0906 14.4296 22.0897 14.4177C22.0837 14.338 22.0759 14.2586 22.0674 14.1794C22.0642 14.1497 22.0607 14.1199 22.0572 14.0902C22.0505 14.0344 22.0431 13.9788 22.0352 13.9233C22.0292 13.8812 22.023 13.8392 22.0163 13.7973C22.0075 13.7421 21.9982 13.6868 21.9882 13.6317C21.9803 13.5882 21.9719 13.5447 21.9632 13.5014C21.9572 13.4713 21.9507 13.4413 21.9443 13.4112C21.9089 13.245 21.8685 13.0807 21.8224 12.9187C21.8224 12.9186 21.8223 12.9186 21.8223 12.9185C21.1031 10.3918 19.1082 8.39695 16.5816 7.67773ZM28.0973 12.6055C28.0973 11.6666 27.3335 10.9028 26.3946 10.9028H21.9651C22.3732 11.6442 22.665 12.4385 22.836 13.2634C22.8388 13.2771 22.8417 13.2908 22.8445 13.3046C22.8559 13.3608 22.8667 13.4171 22.8769 13.4735C22.8811 13.4968 22.885 13.5203 22.8892 13.5437C22.898 13.5955 22.9071 13.6473 22.915 13.6992C22.9201 13.7323 22.9245 13.7657 22.9292 13.799C22.9392 13.8705 22.9486 13.9421 22.9569 14.014C22.9625 14.0616 22.9679 14.1094 22.9726 14.1573C22.976 14.1916 22.9788 14.2259 22.9818 14.2602C22.986 14.3096 22.9899 14.3591 22.9934 14.4087C22.9956 14.4411 22.9977 14.4734 22.9995 14.5059C23.0027 14.5606 23.0052 14.6156 23.0073 14.6706C23.0083 14.6979 23.0096 14.7252 23.0104 14.7525C23.0127 14.8348 23.0142 14.9172 23.0142 15.0001C23.0142 15.0829 23.0127 15.1653 23.0104 15.2476C23.0096 15.2749 23.0083 15.3022 23.0073 15.3295C23.0052 15.3845 23.0027 15.4395 22.9995 15.4942C22.9977 15.5267 22.9956 15.559 22.9934 15.5914C22.9899 15.641 22.986 15.6905 22.9818 15.7399C22.9788 15.7742 22.976 15.8085 22.9726 15.8428C22.9679 15.8907 22.9624 15.9384 22.9569 15.9861C22.9486 16.058 22.9393 16.1297 22.9292 16.2012C22.9245 16.2344 22.9202 16.2677 22.915 16.3008C22.9071 16.3527 22.8981 16.4046 22.8892 16.4563C22.8851 16.4797 22.8812 16.5032 22.8769 16.5265C22.8667 16.583 22.8558 16.6393 22.8445 16.6954C22.8417 16.7091 22.8388 16.7228 22.836 16.7366C22.6651 17.5615 22.3732 18.3558 21.9651 19.0972H26.3946C27.3335 19.0972 28.0973 18.3334 28.0973 17.3945V12.6055Z" fill="black"/>
<path d="M15.2368 15.4188C14.7818 15.8738 14.0747 16.1143 13.192 16.1143C11.6736 16.1143 9.94796 15.4144 9.3453 14.5541C9.02908 14.1026 9.07071 13.7109 9.16122 13.4617C9.379 12.8626 9.80941 12.3682 10.4404 11.9923C10.7231 11.8238 10.985 11.6193 11.2207 11.3822C11.4557 11.1486 11.6604 10.8867 11.8289 10.6037C12.2049 9.97277 12.6992 9.54242 13.2983 9.32463C13.4166 9.28164 13.5395 9.25989 13.6639 9.25989C13.6639 9.25989 13.6639 9.25989 13.664 9.25989C14.3449 9.25989 15.004 9.90798 15.4721 11.0378C16.057 12.4496 16.2387 14.4169 15.2554 15.4001L15.2368 15.4188ZM14.6381 11.3833C14.3096 10.5903 13.8911 10.1625 13.664 10.1625C13.6448 10.1625 13.6261 10.166 13.6067 10.173C13.2082 10.3178 12.8711 10.6182 12.6044 11.0659C12.3972 11.4137 12.1457 11.7355 11.859 12.0205C11.5719 12.3093 11.2501 12.5607 10.9024 12.7678C10.4548 13.0345 10.1545 13.3717 10.0096 13.7701C10.0002 13.796 9.97158 13.8747 10.0846 14.0362C10.4733 14.591 11.8848 15.2116 13.192 15.2116C13.821 15.2116 14.3206 15.0585 14.5985 14.7805L14.6172 14.7619C15.246 14.133 15.1216 12.5503 14.6381 11.3833Z" fill="black"/>
<path d="M14.4779 16.2851C14.6233 16.2299 14.7789 16.2019 14.9404 16.2019C14.9405 16.2019 14.9405 16.2019 14.9405 16.2019C15.8758 16.2019 16.8976 17.1778 17.2297 18.0537C17.6173 19.0761 17.1008 20.2234 16.0783 20.611C15.8521 20.6968 15.6157 20.7402 15.3755 20.7402C14.5566 20.7402 13.8113 20.2256 13.5209 19.4597C13.3405 18.9839 13.3096 18.3181 13.4404 17.7224C13.6016 16.988 13.9701 16.4776 14.4779 16.2851ZM14.3649 19.1397C14.5231 19.5571 14.9293 19.8376 15.3755 19.8376C15.506 19.8376 15.6348 19.8138 15.7583 19.767C16.3154 19.5558 16.5968 18.9307 16.3856 18.3737C16.1735 17.8142 15.4506 17.1045 14.9404 17.1046C14.888 17.1046 14.8414 17.1126 14.7979 17.1291C14.5909 17.2076 14.413 17.5017 14.322 17.916C14.2298 18.3367 14.2469 18.8285 14.3649 19.1397Z" fill="black"/>
<path d="M11.3028 16.1159C11.3028 16.1159 11.3029 16.1159 11.303 16.1159C11.3803 16.1159 11.4575 16.1235 11.5325 16.1387C12.5396 16.3422 12.9952 17.8433 12.8108 18.756C12.6453 19.5754 11.9191 20.1703 11.084 20.1703C10.967 20.1703 10.8491 20.1585 10.7336 20.1352C9.78069 19.9427 9.162 19.0108 9.35441 18.0578C9.51436 17.2661 10.3529 16.116 11.3028 16.1159ZM10.9123 19.2503C10.9691 19.2618 11.0268 19.2676 11.084 19.2676C11.4912 19.2676 11.8453 18.9773 11.9261 18.5772C12.0435 17.9961 11.7118 17.0958 11.3538 17.0235C11.3373 17.0201 11.3207 17.0186 11.3029 17.0186C10.936 17.0186 10.3496 17.6902 10.2392 18.2365C10.1453 18.7016 10.4472 19.1564 10.9123 19.2503Z" fill="black"/>
<path d="M16.1217 14.6412C16.4347 13.8159 17.4979 13.5231 18.3133 13.5231C18.6784 13.5231 19.0184 13.5788 19.2963 13.6842C20.3189 14.0718 20.8353 15.2192 20.4477 16.2417C20.1573 17.0076 19.4119 17.5222 18.593 17.5222C18.3529 17.5222 18.1165 17.4787 17.8903 17.393C16.9116 17.0219 15.7071 15.7351 16.1217 14.6412ZM18.2102 16.5489C18.3338 16.5957 18.4626 16.6195 18.593 16.6195C19.0392 16.6195 19.4454 16.339 19.6037 15.9216C19.8149 15.3644 19.5334 14.7394 18.9763 14.5282C18.802 14.462 18.5665 14.4257 18.3133 14.4257C17.6608 14.4257 17.0815 14.6559 16.9656 14.9612C16.7908 15.4229 17.5583 16.3017 18.2102 16.5489Z" fill="black"/>
<path d="M18.5926 12.9742C18.4608 13.0009 18.3164 13.0144 18.1637 13.0144C17.232 13.0144 16.1483 12.5522 15.9753 11.6959C15.7664 10.6618 16.9921 9.70014 17.8945 9.51787C18.01 9.49453 18.1279 9.48275 18.2449 9.48275C19.08 9.48275 19.8062 10.0775 19.9718 10.8971C20.1641 11.8499 19.5455 12.7818 18.5926 12.9742ZM19.0869 11.0757C19.0061 10.6757 18.652 10.3852 18.2449 10.3852C18.1877 10.3852 18.1299 10.391 18.0732 10.4025C17.4921 10.5198 16.7891 11.1657 16.8601 11.5171C16.9207 11.8171 17.5664 12.1117 18.1637 12.1117C18.2565 12.1117 18.3407 12.1041 18.4138 12.0894C18.8789 11.9955 19.1809 11.5407 19.0869 11.0757Z" fill="black"/>
</g>
<defs>
<clipPath id="clip0_1318_5414">
<rect width="29" height="29" fill="white" transform="matrix(1 0 0 -1 0 29.5)"/>
</clipPath>
</defs>
</svg>
